<svg version="1.1" id="Layer_1" xmlns="http://www.w3.org/2000/svg" xmlns:xlink="http://www.w3.org/1999/xlink" x="0px" y="0px"
	 width="100%" viewBox="0 0 1803 202" enable-background="new 0 0 1803 202" xml:space="preserve">
<path fill="#191816" opacity="1.000000" stroke="none" 
	d="
M1363.000000,203.000000 
	C908.723206,203.000000 454.946411,203.000000 1.084804,203.000000 
	C1.084804,135.731689 1.084804,68.463226 1.084804,1.097386 
	C602.000000,1.097386 1203.000000,1.097386 1803.972290,1.097386 
	C1803.972290,68.387047 1803.972290,135.693527 1803.972290,203.000000 
	C1657.129761,203.000000 1510.314819,203.000000 1363.000000,203.000000 
M899.777039,186.812500 
	C909.243164,186.865021 918.774353,187.644058 928.160400,186.802872 
	C942.912842,185.480698 956.462708,180.673111 966.545898,168.945892 
	C984.141296,148.481812 978.147522,118.291351 953.881836,106.747459 
	C946.883057,103.417946 939.252747,101.340218 931.797363,99.063835 
	C920.046936,95.475983 908.025635,92.700340 896.452759,88.631561 
	C888.381714,85.793938 883.308960,79.747986 883.765442,70.352867 
	C884.214233,61.115124 888.928894,54.520798 897.485901,52.127373 
	C905.362915,49.924149 913.774536,48.689301 921.948364,48.700481 
	C935.906433,48.719570 948.967102,52.998947 961.125854,60.965702 
	C964.005676,53.762554 966.688538,47.052032 969.540283,39.919128 
	C965.516663,37.776524 961.999146,35.544235 958.213440,33.948372 
	C939.614868,26.108055 920.311035,24.260838 900.472351,27.677382 
	C888.722961,29.700808 878.195923,34.188858 869.659424,42.838623 
	C853.040955,59.677731 851.635803,96.699081 882.503540,109.510246 
	C888.774963,112.113098 895.337769,114.082954 901.878967,115.949806 
	C910.831726,118.504929 919.935120,120.532928 928.886536,123.092377 
	C932.688843,124.179573 936.474609,125.680275 939.907837,127.627762 
	C946.683105,131.470963 951.223938,137.053879 950.609558,145.370178 
	C949.968506,154.047409 944.678467,159.210434 936.861084,162.005615 
	C923.574097,166.756546 910.014954,166.189789 896.450989,163.531952 
	C884.599548,161.209702 873.697021,156.526398 863.786377,148.963806 
	C860.537476,156.061264 857.524780,162.642685 854.558350,169.123062 
	C864.616333,177.606430 877.295166,182.590942 899.777039,186.812500 
M167.202560,32.216347 
	C143.969315,24.771124 120.706535,23.346382 97.888176,33.335548 
	C75.807236,43.001904 66.223854,68.510071 75.850708,90.385056 
	C81.363762,102.912308 92.092995,109.031624 104.326965,112.864265 
	C117.982147,117.142151 131.904861,120.571907 145.530777,124.934135 
	C150.148102,126.412331 154.838379,128.919128 158.410370,132.153915 
	C166.757645,139.713196 165.690735,152.229492 156.217636,158.319733 
	C151.993546,161.035431 146.921631,163.106583 141.979950,163.915863 
	C120.007050,167.514236 99.637878,162.861694 81.012115,150.633179 
	C79.979584,149.955292 78.886513,149.369629 77.648605,148.638901 
	C74.377075,155.690674 71.310165,162.301376 68.168526,169.073166 
	C68.960854,169.788086 69.602798,170.573074 70.419037,171.074081 
	C100.608696,189.604828 132.490311,194.013306 165.319702,179.852127 
	C182.547043,172.420990 190.313828,157.509628 189.144806,138.518173 
	C188.052460,120.772522 177.634109,110.386436 161.675598,104.818985 
	C153.200790,101.862373 144.488235,99.593491 135.919846,96.897118 
	C127.046638,94.104836 117.936348,91.817978 109.446671,88.122528 
	C100.411552,84.189629 97.381744,77.187012 98.876343,67.712723 
	C100.372612,58.227760 106.677216,53.373077 115.383438,51.099911 
	C125.880569,48.359150 136.602509,47.920601 147.052216,50.629948 
	C156.442139,53.064526 165.514084,56.725651 174.970490,59.928432 
	C177.298340,53.913113 179.924179,47.127731 182.854050,39.556740 
	C177.750046,37.155350 172.834381,34.842579 167.202560,32.216347 
M1341.337646,126.141823 
	C1338.983276,122.751564 1336.628906,119.361313 1334.265137,115.957710 
	C1349.440063,100.119141 1364.324829,84.583397 1380.221924,67.991058 
	C1370.296875,67.991058 1362.014038,67.863876 1353.741821,68.104507 
	C1352.194214,68.149529 1350.430054,69.392136 1349.203857,70.547173 
	C1331.134644,87.568398 1313.142456,104.671440 1295.111206,121.733032 
	C1294.611328,122.206062 1293.880005,122.434570 1292.408081,123.243248 
	C1292.408081,88.645660 1292.408081,54.875183 1292.408081,20.971569 
	C1283.862793,20.971569 1275.968750,20.971569 1268.152832,20.971569 
	C1268.152832,75.836784 1268.152832,130.413269 1268.152832,185.187180 
	C1276.279785,185.187180 1284.059570,185.187180 1292.613525,185.187180 
	C1292.613525,176.674255 1292.573975,168.372437 1292.651733,160.071701 
	C1292.665039,158.654678 1292.692871,156.762466 1293.539551,155.903000 
	C1300.955811,148.375259 1308.559814,141.032333 1316.280029,133.466110 
	C1328.946533,149.961426 1341.299683,166.083740 1353.720703,182.153656 
	C1354.659058,183.367798 1356.057129,185.054230 1357.281128,185.087982 
	C1366.324219,185.337433 1375.377563,185.223007 1385.509888,185.223007 
	C1370.440674,165.054794 1356.113770,145.879868 1341.337646,126.141823 
M1411.985352,138.752060 
	C1411.810303,137.506836 1411.635376,136.261612 1411.425903,134.771408 
	C1442.206909,134.771408 1472.631592,134.771408 1503.758545,134.771408 
	C1503.758545,130.972244 1503.906250,127.356140 1503.734131,123.755295 
	C1502.727173,102.673729 1494.852051,85.200371 1476.171509,74.083542 
	C1445.840210,56.033386 1394.337158,67.247185 1386.717651,116.218697 
	C1382.054810,146.188583 1396.371582,173.446182 1423.098389,183.283264 
	C1441.114014,189.914078 1459.358276,189.431107 1477.176270,181.978287 
	C1484.624023,178.863083 1490.787720,173.956238 1495.636719,167.415771 
	C1491.077393,162.162491 1486.751099,157.177780 1482.431641,152.200928 
	C1454.287964,174.820511 1422.048584,168.975891 1411.985352,138.752060 
M1025.792236,71.226906 
	C983.514282,89.168930 980.088623,153.191040 1016.835938,176.504868 
	C1038.246582,190.088577 1060.949829,191.199234 1084.129028,181.321259 
	C1091.064697,178.365555 1096.817261,173.551422 1101.494385,167.300323 
	C1097.000610,162.058182 1092.704468,157.046646 1088.345825,151.962128 
	C1073.175293,166.532227 1055.755005,169.600433 1036.691040,161.842255 
	C1024.995117,157.082550 1019.085693,147.424026 1016.875183,134.616669 
	C1047.776489,134.616669 1078.178589,134.616669 1108.855835,134.616669 
	C1108.855835,130.172195 1109.090942,126.176033 1108.815552,122.215370 
	C1107.573730,104.356003 1101.730835,88.646027 1086.700317,77.691139 
	C1067.974854,64.043159 1047.724365,62.921394 1025.792236,71.226906 
M1176.500000,134.869919 
	C1198.268311,134.869919 1220.036621,134.869919 1242.134033,134.869919 
	C1242.134033,130.049316 1242.383057,125.737801 1242.092651,121.462929 
	C1240.554565,98.823524 1230.961670,80.660049 1209.743286,71.385773 
	C1188.170410,61.956528 1166.571655,63.771656 1147.350586,78.210678 
	C1125.558594,94.581024 1118.568604,127.363617 1130.543823,153.355286 
	C1140.950562,175.942505 1164.998413,189.227859 1192.109253,187.448471 
	C1208.866699,186.348618 1223.667603,181.194138 1234.657227,167.407410 
	C1230.110352,162.251892 1225.640625,157.183762 1221.127686,152.066620 
	C1205.826782,166.355072 1188.611694,169.580688 1169.729736,161.744186 
	C1158.123169,156.927155 1152.126587,147.423599 1150.016113,134.867233 
	C1158.877075,134.867233 1167.188599,134.867233 1176.500000,134.869919 
M750.825134,179.753250 
	C778.940796,194.688461 816.365417,187.046280 829.554932,166.864517 
	C825.206665,161.969116 820.824280,157.035416 816.454651,152.115967 
	C797.737610,165.760452 779.942871,169.049973 764.943298,161.722321 
	C753.894348,156.324631 748.161011,147.246429 746.143005,134.655945 
	C777.003418,134.655945 807.382629,134.655945 837.989990,134.655945 
	C837.989990,130.233673 838.186035,126.403000 837.960327,122.597343 
	C834.826599,69.754005 784.044861,55.271580 749.519226,73.977455 
	C711.517944,94.566422 710.652100,157.849854 750.825134,179.753250 
M289.833984,183.433929 
	C298.831238,180.270157 306.238800,174.954407 312.177124,167.413239 
	C307.466553,162.190903 303.024567,157.266342 298.588562,152.348419 
	C279.686432,166.009842 263.785126,169.072769 248.084763,161.835068 
	C236.741837,156.606094 230.764771,147.342361 228.531586,134.785583 
	C258.824524,134.785583 288.740204,134.785583 319.240265,134.785583 
	C319.240265,130.271545 319.381165,126.154060 319.218597,122.048576 
	C317.474609,78.007233 275.750763,55.755703 238.047379,71.085762 
	C214.746689,80.559723 204.981949,99.679993 203.483292,123.895668 
	C201.748749,151.922897 218.243515,176.572571 244.394470,184.480545 
	C259.335022,188.998535 274.283447,188.724930 289.833984,183.433929 
M696.569275,102.029877 
	C701.458618,98.948883 706.348022,95.867882 711.174072,92.826752 
	C700.936340,71.740829 673.108521,61.060516 646.407288,67.538803 
	C618.434265,74.325668 599.865784,97.889427 600.416382,125.902283 
	C601.036316,157.445526 619.918457,180.472992 650.159363,186.565643 
	C675.037354,191.577820 702.543945,179.850311 711.100342,160.352676 
	C704.808228,156.220795 698.476318,152.062790 692.214355,147.950714 
	C673.964478,167.710068 652.766785,170.395264 637.312805,155.222366 
	C622.348938,140.530701 622.338013,112.460922 637.290649,98.215767 
	C652.963135,83.284843 675.235229,85.880882 691.804565,104.811401 
	C693.151062,104.034767 694.559937,103.222145 696.569275,102.029877 
M451.916992,162.622589 
	C454.616333,169.068298 457.142944,175.596222 460.142242,181.899185 
	C460.849976,183.386444 463.099030,184.949203 464.724854,185.046692 
	C470.863770,185.414917 477.048279,185.385971 483.191620,185.056320 
	C484.697418,184.975510 486.860138,183.516479 487.459015,182.141510 
	C503.336853,145.686157 519.052795,109.160248 534.773376,72.636505 
	C535.318359,71.370346 535.627563,70.002686 536.205261,68.182480 
	C529.133179,68.182480 522.808228,68.383392 516.504639,68.103653 
	C512.982727,67.947357 511.178955,69.095490 509.790619,72.405540 
	C502.004211,90.969566 493.954681,109.423042 486.045349,127.935768 
	C482.223541,136.881195 478.511780,145.873627 474.336975,155.830231 
	C473.224060,153.189056 472.529236,151.548630 471.840942,149.905441 
	C460.850861,123.668968 449.890747,97.419800 438.790985,71.229828 
	C438.202362,69.840996 436.470917,68.029190 435.210907,67.980484 
	C427.441864,67.680138 419.655396,67.829735 411.107666,67.829735 
	C424.810028,99.649368 438.217926,130.785141 451.916992,162.622589 
M1551.212646,68.127502 
	C1543.622559,68.127502 1536.032349,68.127502 1528.686035,68.127502 
	C1528.686035,107.544579 1528.686035,146.400803 1528.686035,185.048294 
	C1537.195435,185.048294 1545.106445,185.048294 1553.176392,185.048294 
	C1553.176392,163.349945 1553.138550,142.041397 1553.188477,120.733070 
	C1553.226685,104.439079 1562.005615,93.683617 1578.078369,90.663826 
	C1582.868652,89.763794 1587.857056,89.918839 1592.598999,89.600922 
	C1592.598999,81.792015 1592.598999,74.205406 1592.598999,66.303917 
	C1576.273438,65.213051 1563.056152,70.420326 1553.217773,83.704521 
	C1552.782104,83.499962 1552.346313,83.295403 1551.910522,83.090843 
	C1551.910522,78.319412 1551.910522,73.547989 1551.212646,68.127502 
M345.622375,185.263840 
	C353.030487,185.263840 360.438629,185.263840 368.163086,185.263840 
	C368.163086,182.407455 368.162048,180.429184 368.163208,178.450928 
	C368.174622,159.141632 368.100159,139.831772 368.224976,120.523209 
	C368.327454,104.671234 377.006927,94.014626 392.481201,90.892159 
	C397.121857,89.955750 401.950989,89.953644 406.968689,89.498581 
	C406.968689,81.894455 406.968689,74.360756 406.968689,66.693626 
	C391.246429,65.829170 378.298218,70.736908 367.389191,82.477600 
	C367.389191,77.917816 367.389191,73.358040 367.389191,68.646210 
	C359.124451,68.646210 351.594116,68.646210 343.982452,68.646210 
	C343.851257,69.861717 343.685913,70.678581 343.686005,71.495430 
	C343.691010,108.116508 343.701538,144.737595 343.767456,181.358582 
	C343.769684,182.595993 344.347809,183.832367 345.622375,185.263840 
M25.951868,131.500000 
	C25.951868,149.732986 25.951868,167.965973 25.951868,186.308701 
	C34.039276,186.308701 41.312786,186.308701 48.781868,186.308701 
	C48.781868,150.345337 48.781868,114.655235 48.781868,78.746597 
	C41.033890,78.746597 33.611629,78.746597 25.953072,78.746597 
	C25.953072,96.208244 25.953072,113.354118 25.951868,131.500000 
M1784.145142,129.499908 
	C1784.145142,115.080803 1784.145142,100.661697 1784.145142,86.282204 
	C1777.037109,86.282204 1770.674316,86.282204 1764.319092,86.282204 
	C1764.319092,119.442894 1764.319092,152.158081 1764.319092,184.787140 
	C1771.070312,184.787140 1777.461914,184.787140 1784.148071,184.787140 
	C1784.148071,166.422775 1784.148071,148.461334 1784.145142,129.499908 
M1676.189209,128.553452 
	C1675.365479,128.677795 1674.540283,128.793610 1673.718140,128.927795 
	C1659.678589,131.219437 1650.719604,140.193634 1649.241211,153.443222 
	C1647.741821,166.882355 1655.202026,180.180527 1668.000732,184.305054 
	C1674.945557,186.543121 1682.653931,187.231354 1690.008179,187.182541 
	C1700.283081,187.114319 1709.206299,182.693329 1716.895264,174.500000 
	C1717.269775,178.619919 1717.557373,181.783401 1717.833252,184.818832 
	C1724.327515,184.818832 1730.247192,184.818832 1735.717285,184.818832 
	C1735.717285,162.524002 1736.531250,140.528290 1735.437134,118.627899 
	C1734.681030,103.494026 1726.403687,92.370789 1711.067749,87.870384 
	C1700.644287,84.811523 1690.050415,84.660721 1679.401367,86.484871 
	C1669.696533,88.147232 1660.354492,90.817253 1651.733765,96.442413 
	C1654.632446,101.900032 1657.341797,107.001289 1660.040283,112.082100 
	C1677.096802,103.782326 1686.265381,101.903053 1698.755127,104.013489 
	C1710.941284,106.072662 1717.257080,114.934235 1715.269775,128.391434 
	C1702.642700,128.391434 1689.858887,128.391434 1676.189209,128.553452 
M23.324427,38.138470 
	C20.887154,44.512218 21.854536,50.348289 26.582268,55.244957 
	C30.994173,59.814514 36.540524,61.194405 42.646175,59.437702 
	C49.340443,57.511639 53.544819,51.665684 53.418552,44.899620 
	C53.284683,37.726204 48.367554,31.463490 41.340870,29.516851 
	C34.434620,27.603580 28.006359,30.502851 23.324427,38.138470 
M553.838257,68.165352 
	C553.174438,69.936958 551.937561,71.706566 551.931396,73.480484 
	C551.806335,109.261841 551.818970,145.043686 551.823792,180.825439 
	C551.824036,182.267120 552.019165,183.708771 552.127380,185.205322 
	C560.527344,185.205322 568.570679,185.205322 576.527832,185.205322 
	C576.527832,146.055374 576.527832,107.361427 576.527832,68.148514 
	C569.022522,68.148514 561.901672,68.148514 553.838257,68.165352 
M548.023621,29.946045 
	C547.992188,30.943707 547.903992,31.943346 547.938660,32.938709 
	C548.174316,39.702866 551.235291,44.822880 557.406860,47.583878 
	C563.724182,50.410065 569.889587,49.545437 575.099976,44.918846 
	C580.248047,40.347580 582.151550,34.578011 580.107300,27.775494 
	C578.019470,20.827702 571.811890,16.250118 564.375854,16.191536 
	C556.640869,16.130602 550.945740,20.662537 548.023621,29.946045 
M1631.619751,166.235275 
	C1627.436035,159.700378 1622.628052,157.375549 1616.295044,158.825180 
	C1610.801758,160.082626 1606.671997,164.632919 1605.924316,170.252090 
	C1605.005493,177.157410 1607.804199,182.942139 1613.408936,185.721909 
	C1618.223389,188.109787 1624.202393,187.335922 1628.332397,183.790665 
	C1633.054688,179.737015 1634.278076,174.051865 1631.619751,166.235275 
M1782.659790,65.290291 
	C1787.339478,61.198685 1788.371826,56.067871 1786.431152,50.411377 
	C1784.721069,45.426716 1780.953613,42.597572 1775.698364,42.035164 
	C1769.977295,41.422916 1764.594116,44.597424 1762.385254,49.679989 
	C1760.167847,54.782440 1761.462891,60.950817 1765.547363,64.742714 
	C1770.043579,68.916824 1775.503296,69.251404 1782.659790,65.290291 
z"/>
<path fill="#FCFCFB" opacity="1.000000" stroke="none" 
	d="
M899.337463,186.753296 
	C877.295166,182.590942 864.616333,177.606430 854.558350,169.123062 
	C857.524780,162.642685 860.537476,156.061264 863.786377,148.963806 
	C873.697021,156.526398 884.599548,161.209702 896.450989,163.531952 
	C910.014954,166.189789 923.574097,166.756546 936.861084,162.005615 
	C944.678467,159.210434 949.968506,154.047409 950.609558,145.370178 
	C951.223938,137.053879 946.683105,131.470963 939.907837,127.627762 
	C936.474609,125.680275 932.688843,124.179573 928.886536,123.092377 
	C919.935120,120.532928 910.831726,118.504929 901.878967,115.949806 
	C895.337769,114.082954 888.774963,112.113098 882.503540,109.510246 
	C851.635803,96.699081 853.040955,59.677731 869.659424,42.838623 
	C878.195923,34.188858 888.722961,29.700808 900.472351,27.677382 
	C920.311035,24.260838 939.614868,26.108055 958.213440,33.948372 
	C961.999146,35.544235 965.516663,37.776524 969.540283,39.919128 
	C966.688538,47.052032 964.005676,53.762554 961.125854,60.965702 
	C948.967102,52.998947 935.906433,48.719570 921.948364,48.700481 
	C913.774536,48.689301 905.362915,49.924149 897.485901,52.127373 
	C888.928894,54.520798 884.214233,61.115124 883.765442,70.352867 
	C883.308960,79.747986 888.381714,85.793938 896.452759,88.631561 
	C908.025635,92.700340 920.046936,95.475983 931.797363,99.063835 
	C939.252747,101.340218 946.883057,103.417946 953.881836,106.747459 
	C978.147522,118.291351 984.141296,148.481812 966.545898,168.945892 
	C956.462708,180.673111 942.912842,185.480698 928.160400,186.802872 
	C918.774353,187.644058 909.243164,186.865021 899.337463,186.753296 
z"/>
<path fill="#F1901B" opacity="1.000000" stroke="none" 
	d="
M167.560638,32.373077 
	C172.834381,34.842579 177.750046,37.155350 182.854050,39.556740 
	C179.924179,47.127731 177.298340,53.913113 174.970490,59.928432 
	C165.514084,56.725651 156.442139,53.064526 147.052216,50.629948 
	C136.602509,47.920601 125.880569,48.359150 115.383438,51.099911 
	C106.677216,53.373077 100.372612,58.227760 98.876343,67.712723 
	C97.381744,77.187012 100.411552,84.189629 109.446671,88.122528 
	C117.936348,91.817978 127.046638,94.104836 135.919846,96.897118 
	C144.488235,99.593491 153.200790,101.862373 161.675598,104.818985 
	C177.634109,110.386436 188.052460,120.772522 189.144806,138.518173 
	C190.313828,157.509628 182.547043,172.420990 165.319702,179.852127 
	C132.490311,194.013306 100.608696,189.604828 70.419037,171.074081 
	C69.602798,170.573074 68.960854,169.788086 68.168526,169.073166 
	C71.310165,162.301376 74.377075,155.690674 77.648605,148.638901 
	C78.886513,149.369629 79.979584,149.955292 81.012115,150.633179 
	C99.637878,162.861694 120.007050,167.514236 141.979950,163.915863 
	C146.921631,163.106583 151.993546,161.035431 156.217636,158.319733 
	C165.690735,152.229492 166.757645,139.713196 158.410370,132.153915 
	C154.838379,128.919128 150.148102,126.412331 145.530777,124.934135 
	C131.904861,120.571907 117.982147,117.142151 104.326965,112.864265 
	C92.092995,109.031624 81.363762,102.912308 75.850708,90.385056 
	C66.223854,68.510071 75.807236,43.001904 97.888176,33.335548 
	C120.706535,23.346382 143.969315,24.771124 167.560638,32.373077 
z"/>
<path fill="#FDFDFD" opacity="1.000000" stroke="none" 
	d="
M1341.562256,126.423378 
	C1356.113770,145.879868 1370.440674,165.054794 1385.509888,185.223007 
	C1375.377563,185.223007 1366.324219,185.337433 1357.281128,185.087982 
	C1356.057129,185.054230 1354.659058,183.367798 1353.720703,182.153656 
	C1341.299683,166.083740 1328.946533,149.961426 1316.280029,133.466110 
	C1308.559814,141.032333 1300.955811,148.375259 1293.539551,155.903000 
	C1292.692871,156.762466 1292.665039,158.654678 1292.651733,160.071701 
	C1292.573975,168.372437 1292.613525,176.674255 1292.613525,185.187180 
	C1284.059570,185.187180 1276.279785,185.187180 1268.152832,185.187180 
	C1268.152832,130.413269 1268.152832,75.836784 1268.152832,20.971569 
	C1275.968750,20.971569 1283.862793,20.971569 1292.408081,20.971569 
	C1292.408081,54.875183 1292.408081,88.645660 1292.408081,123.243248 
	C1293.880005,122.434570 1294.611328,122.206062 1295.111206,121.733032 
	C1313.142456,104.671440 1331.134644,87.568398 1349.203857,70.547173 
	C1350.430054,69.392136 1352.194214,68.149529 1353.741821,68.104507 
	C1362.014038,67.863876 1370.296875,67.991058 1380.221924,67.991058 
	C1364.324829,84.583397 1349.440063,100.119141 1334.265137,115.957710 
	C1336.628906,119.361313 1338.983276,122.751564 1341.562256,126.423378 
z"/>
<path fill="#FBFBFB" opacity="1.000000" stroke="none" 
	d="
M1412.075439,139.192963 
	C1422.048584,168.975891 1454.287964,174.820511 1482.431641,152.200928 
	C1486.751099,157.177780 1491.077393,162.162491 1495.636719,167.415771 
	C1490.787720,173.956238 1484.624023,178.863083 1477.176270,181.978287 
	C1459.358276,189.431107 1441.114014,189.914078 1423.098389,183.283264 
	C1396.371582,173.446182 1382.054810,146.188583 1386.717651,116.218697 
	C1394.337158,67.247185 1445.840210,56.033386 1476.171509,74.083542 
	C1494.852051,85.200371 1502.727173,102.673729 1503.734131,123.755295 
	C1503.906250,127.356140 1503.758545,130.972244 1503.758545,134.771408 
	C1472.631592,134.771408 1442.206909,134.771408 1411.425903,134.771408 
	C1411.635376,136.261612 1411.810303,137.506836 1412.075439,139.192963 
M1427.597412,91.946358 
	C1417.387329,97.568932 1412.977661,106.866051 1410.999268,118.026268 
	C1433.742065,118.026268 1456.283081,118.026268 1479.055908,118.026268 
	C1477.555908,106.027794 1472.425049,96.641518 1461.857422,91.191338 
	C1450.759766,85.467735 1439.397339,86.258209 1427.597412,91.946358 
z"/>
<path fill="#FBFBFB" opacity="1.000000" stroke="none" 
	d="
M1026.152588,71.102005 
	C1047.724365,62.921394 1067.974854,64.043159 1086.700317,77.691139 
	C1101.730835,88.646027 1107.573730,104.356003 1108.815552,122.215370 
	C1109.090942,126.176033 1108.855835,130.172195 1108.855835,134.616669 
	C1078.178589,134.616669 1047.776489,134.616669 1016.875183,134.616669 
	C1019.085693,147.424026 1024.995117,157.082550 1036.691040,161.842255 
	C1055.755005,169.600433 1073.175293,166.532227 1088.345825,151.962128 
	C1092.704468,157.046646 1097.000610,162.058182 1101.494385,167.300323 
	C1096.817261,173.551422 1091.064697,178.365555 1084.129028,181.321259 
	C1060.949829,191.199234 1038.246582,190.088577 1016.835938,176.504868 
	C980.088623,153.191040 983.514282,89.168930 1026.152588,71.102005 
M1071.593628,93.828911 
	C1059.634033,85.701950 1047.029907,85.216583 1034.312988,91.456070 
	C1023.468323,96.776924 1018.540588,106.302467 1017.005432,118.052200 
	C1039.816528,118.052200 1062.188232,118.052200 1084.596436,118.052200 
	C1083.280029,107.074432 1080.100952,101.040138 1071.593628,93.828911 
z"/>
<path fill="#FBFBFB" opacity="1.000000" stroke="none" 
	d="
M1176.000000,134.868576 
	C1167.188599,134.867233 1158.877075,134.867233 1150.016113,134.867233 
	C1152.126587,147.423599 1158.123169,156.927155 1169.729736,161.744186 
	C1188.611694,169.580688 1205.826782,166.355072 1221.127686,152.066620 
	C1225.640625,157.183762 1230.110352,162.251892 1234.657227,167.407410 
	C1223.667603,181.194138 1208.866699,186.348618 1192.109253,187.448471 
	C1164.998413,189.227859 1140.950562,175.942505 1130.543823,153.355286 
	C1118.568604,127.363617 1125.558594,94.581024 1147.350586,78.210678 
	C1166.571655,63.771656 1188.170410,61.956528 1209.743286,71.385773 
	C1230.961670,80.660049 1240.554565,98.823524 1242.092651,121.462929 
	C1242.383057,125.737801 1242.134033,130.049316 1242.134033,134.869919 
	C1220.036621,134.869919 1198.268311,134.869919 1176.000000,134.868576 
M1149.904297,116.854591 
	C1151.270386,117.331047 1152.634888,118.217438 1154.002686,118.222282 
	C1173.477417,118.291321 1192.952637,118.240936 1212.427734,118.219902 
	C1214.199463,118.217987 1215.971191,118.219650 1218.043701,118.219650 
	C1216.527100,106.547333 1212.055786,97.562805 1202.097534,91.855827 
	C1184.308350,81.661034 1154.997070,88.231079 1149.904297,116.854591 
z"/>
<path fill="#F0911D" opacity="1.000000" stroke="none" 
	d="
M750.512329,179.559174 
	C710.652100,157.849854 711.517944,94.566422 749.519226,73.977455 
	C784.044861,55.271580 834.826599,69.754005 837.960327,122.597343 
	C838.186035,126.403000 837.989990,130.233673 837.989990,134.655945 
	C807.382629,134.655945 777.003418,134.655945 746.143005,134.655945 
	C748.161011,147.246429 753.894348,156.324631 764.943298,161.722321 
	C779.942871,169.049973 797.737610,165.760452 816.454651,152.115967 
	C820.824280,157.035416 825.206665,161.969116 829.554932,166.864517 
	C816.365417,187.046280 778.940796,194.688461 750.512329,179.559174 
M746.963562,113.537872 
	C746.715759,114.920563 746.468018,116.303253 746.180908,117.905426 
	C768.596680,117.905426 790.499207,117.905426 812.661377,117.905426 
	C811.291443,106.389534 806.907288,96.991600 796.652832,91.498474 
	C776.964905,80.952065 751.945984,90.784782 746.963562,113.537872 
z"/>
<path fill="#F1901A" opacity="1.000000" stroke="none" 
	d="
M289.472229,183.587463 
	C274.283447,188.724930 259.335022,188.998535 244.394470,184.480545 
	C218.243515,176.572571 201.748749,151.922897 203.483292,123.895668 
	C204.981949,99.679993 214.746689,80.559723 238.047379,71.085762 
	C275.750763,55.755703 317.474609,78.007233 319.218597,122.048576 
	C319.381165,126.154060 319.240265,130.271545 319.240265,134.785583 
	C288.740204,134.785583 258.824524,134.785583 228.531586,134.785583 
	C230.764771,147.342361 236.741837,156.606094 248.084763,161.835068 
	C263.785126,169.072769 279.686432,166.009842 298.588562,152.348419 
	C303.024567,157.266342 307.466553,162.190903 312.177124,167.413239 
	C306.238800,174.954407 298.831238,180.270157 289.472229,183.587463 
M236.608322,97.243195 
	C236.427399,97.540680 236.246475,97.838165 236.056549,98.052620 
	C236.056549,98.052620 236.139587,98.061584 235.633957,98.265884 
	C235.464386,98.576782 235.294830,98.887672 235.168777,99.114822 
	C235.168777,99.114822 235.233322,99.183685 234.496445,99.178429 
	C234.044281,100.170265 233.592102,101.162094 233.102066,102.076042 
	C233.102066,102.076042 233.188110,102.066261 232.619492,102.346664 
	C232.432678,102.924660 232.245850,103.502655 232.020798,104.016953 
	C232.020798,104.016953 232.095078,104.017197 231.561401,104.351585 
	C231.406067,104.939095 231.250748,105.526596 231.064026,106.034393 
	C231.064026,106.034393 231.148361,106.049446 230.472305,106.318161 
	C228.599884,109.977562 225.337448,113.355507 228.030838,117.958847 
	C228.030838,117.958847 228.083603,117.892357 228.225510,118.690300 
	C229.379135,119.121262 230.531326,119.923416 231.686615,119.927895 
	C251.272324,120.003998 270.858612,120.012672 290.444031,119.903511 
	C291.654053,119.896759 292.857880,118.789291 294.525696,117.890114 
	C294.736877,117.592606 294.948090,117.295090 295.628479,116.438126 
	C294.692200,113.598015 293.755951,110.757904 292.709808,107.761230 
	C292.709808,107.761230 292.818268,107.603683 292.912506,106.781670 
	C291.924988,105.192528 290.937469,103.603394 290.003357,102.004265 
	C290.003357,102.004265 289.977020,102.051819 289.961823,101.420395 
	C289.569153,100.977203 289.176483,100.534012 288.896820,100.073135 
	C288.896820,100.073135 288.885681,100.186974 288.750946,99.666107 
	C288.475555,99.450478 288.200134,99.234848 287.993744,99.012695 
	C287.993744,99.012695 287.953888,99.069389 288.000916,98.321617 
	C287.322144,95.019806 285.547852,92.975235 281.991394,93.002663 
	C281.991394,93.002663 281.985809,93.066902 281.748535,92.586044 
	C281.435455,92.430626 281.122375,92.275215 280.926331,92.109344 
	C280.926331,92.109344 280.906891,92.225235 280.647034,91.642242 
	C280.068512,91.451080 279.489990,91.259926 278.976898,91.027603 
	C278.976898,91.027603 278.977875,91.104904 278.648651,90.566544 
	C278.060699,90.408997 277.472717,90.251450 276.963257,90.063263 
	C276.963257,90.063263 276.952667,90.146881 276.675903,89.465233 
	C269.152191,84.602142 260.983795,85.359070 252.839508,87.018494 
	C250.787109,87.436668 248.987579,89.095978 247.052551,90.095963 
	C247.052551,90.095963 247.138382,90.126289 246.498001,90.080505 
	C246.013138,90.437134 245.528275,90.793762 245.046112,91.065483 
	C245.046112,91.065483 245.120117,91.107224 244.474731,91.075485 
	C244.019409,91.466591 243.564087,91.857704 243.109238,92.151115 
	C243.109238,92.151115 243.193314,92.200867 242.443848,92.080475 
	C241.696274,92.804604 240.948685,93.528725 240.127792,94.186348 
	C240.127792,94.186348 240.215668,94.140800 239.684235,94.275955 
	C239.477112,94.564888 239.269974,94.853828 239.054611,95.058182 
	C239.054611,95.058182 239.138962,95.068497 238.632370,95.240555 
	C238.434219,95.527206 238.236053,95.813858 238.024109,96.026993 
	C238.024109,96.026993 238.098022,96.038460 237.607376,96.234711 
	C237.417877,96.522972 237.228378,96.811234 237.027573,97.025383 
	C237.027573,97.025383 237.101471,97.037994 236.608322,97.243195 
z"/>
<path fill="#F1901C" opacity="1.000000" stroke="none" 
	d="
M696.269043,102.219696 
	C694.559937,103.222145 693.151062,104.034767 691.804565,104.811401 
	C675.235229,85.880882 652.963135,83.284843 637.290649,98.215767 
	C622.338013,112.460922 622.348938,140.530701 637.312805,155.222366 
	C652.766785,170.395264 673.964478,167.710068 692.214355,147.950714 
	C698.476318,152.062790 704.808228,156.220795 711.100342,160.352676 
	C702.543945,179.850311 675.037354,191.577820 650.159363,186.565643 
	C619.918457,180.472992 601.036316,157.445526 600.416382,125.902283 
	C599.865784,97.889427 618.434265,74.325668 646.407288,67.538803 
	C673.108521,61.060516 700.936340,71.740829 711.174072,92.826752 
	C706.348022,95.867882 701.458618,98.948883 696.269043,102.219696 
z"/>
<path fill="#F2911B" opacity="1.000000" stroke="none" 
	d="
M451.771423,162.271759 
	C438.217926,130.785141 424.810028,99.649368 411.107666,67.829735 
	C419.655396,67.829735 427.441864,67.680138 435.210907,67.980484 
	C436.470917,68.029190 438.202362,69.840996 438.790985,71.229828 
	C449.890747,97.419800 460.850861,123.668968 471.840942,149.905441 
	C472.529236,151.548630 473.224060,153.189056 474.336975,155.830231 
	C478.511780,145.873627 482.223541,136.881195 486.045349,127.935768 
	C493.954681,109.423042 502.004211,90.969566 509.790619,72.405540 
	C511.178955,69.095490 512.982727,67.947357 516.504639,68.103653 
	C522.808228,68.383392 529.133179,68.182480 536.205261,68.182480 
	C535.627563,70.002686 535.318359,71.370346 534.773376,72.636505 
	C519.052795,109.160248 503.336853,145.686157 487.459015,182.141510 
	C486.860138,183.516479 484.697418,184.975510 483.191620,185.056320 
	C477.048279,185.385971 470.863770,185.414917 464.724854,185.046692 
	C463.099030,184.949203 460.849976,183.386444 460.142242,181.899185 
	C457.142944,175.596222 454.616333,169.068298 451.771423,162.271759 
z"/>
<path fill="#FCFCFB" opacity="1.000000" stroke="none" 
	d="
M1551.561523,68.452026 
	C1551.910522,73.547989 1551.910522,78.319412 1551.910522,83.090843 
	C1552.346313,83.295403 1552.782104,83.499962 1553.217773,83.704521 
	C1563.056152,70.420326 1576.273438,65.213051 1592.598999,66.303917 
	C1592.598999,74.205406 1592.598999,81.792015 1592.598999,89.600922 
	C1587.857056,89.918839 1582.868652,89.763794 1578.078369,90.663826 
	C1562.005615,93.683617 1553.226685,104.439079 1553.188477,120.733070 
	C1553.138550,142.041397 1553.176392,163.349945 1553.176392,185.048294 
	C1545.106445,185.048294 1537.195435,185.048294 1528.686035,185.048294 
	C1528.686035,146.400803 1528.686035,107.544579 1528.686035,68.127502 
	C1536.032349,68.127502 1543.622559,68.127502 1551.561523,68.452026 
z"/>
<path fill="#F2911B" opacity="1.000000" stroke="none" 
	d="
M345.139954,185.166534 
	C344.347809,183.832367 343.769684,182.595993 343.767456,181.358582 
	C343.701538,144.737595 343.691010,108.116508 343.686005,71.495430 
	C343.685913,70.678581 343.851257,69.861717 343.982452,68.646210 
	C351.594116,68.646210 359.124451,68.646210 367.389191,68.646210 
	C367.389191,73.358040 367.389191,77.917816 367.389191,82.477600 
	C378.298218,70.736908 391.246429,65.829170 406.968689,66.693626 
	C406.968689,74.360756 406.968689,81.894455 406.968689,89.498581 
	C401.950989,89.953644 397.121857,89.955750 392.481201,90.892159 
	C377.006927,94.014626 368.327454,104.671234 368.224976,120.523209 
	C368.100159,139.831772 368.174622,159.141632 368.163208,178.450928 
	C368.162048,180.429184 368.163086,182.407455 368.163086,185.263840 
	C360.438629,185.263840 353.030487,185.263840 345.139954,185.166534 
z"/>
<path fill="#FCFCFB" opacity="1.000000" stroke="none" 
	d="
M25.952469,131.000000 
	C25.953072,113.354118 25.953072,96.208244 25.953072,78.746597 
	C33.611629,78.746597 41.033890,78.746597 48.781868,78.746597 
	C48.781868,114.655235 48.781868,150.345337 48.781868,186.308701 
	C41.312786,186.308701 34.039276,186.308701 25.951868,186.308701 
	C25.951868,167.965973 25.951868,149.732986 25.952469,131.000000 
z"/>
<path fill="#F49521" opacity="1.000000" stroke="none" 
	d="
M1784.146606,129.999908 
	C1784.148071,148.461334 1784.148071,166.422775 1784.148071,184.787140 
	C1777.461914,184.787140 1771.070312,184.787140 1764.319092,184.787140 
	C1764.319092,152.158081 1764.319092,119.442894 1764.319092,86.282204 
	C1770.674316,86.282204 1777.037109,86.282204 1784.145142,86.282204 
	C1784.145142,100.661697 1784.145142,115.080803 1784.146606,129.999908 
z"/>
<path fill="#E7922A" opacity="1.000000" stroke="none" 
	d="
M1676.632080,128.472443 
	C1689.858887,128.391434 1702.642700,128.391434 1715.269775,128.391434 
	C1717.257080,114.934235 1710.941284,106.072662 1698.755127,104.013489 
	C1686.265381,101.903053 1677.096802,103.782326 1660.040283,112.082100 
	C1657.341797,107.001289 1654.632446,101.900032 1651.733765,96.442413 
	C1660.354492,90.817253 1669.696533,88.147232 1679.401367,86.484871 
	C1690.050415,84.660721 1700.644287,84.811523 1711.067749,87.870384 
	C1726.403687,92.370789 1734.681030,103.494026 1735.437134,118.627899 
	C1736.531250,140.528290 1735.717285,162.524002 1735.717285,184.818832 
	C1730.247192,184.818832 1724.327515,184.818832 1717.833252,184.818832 
	C1717.557373,181.783401 1717.269775,178.619919 1716.895264,174.500000 
	C1709.206299,182.693329 1700.283081,187.114319 1690.008179,187.182541 
	C1682.653931,187.231354 1674.945557,186.543121 1668.000732,184.305054 
	C1655.202026,180.180527 1647.741821,166.882355 1649.241211,153.443222 
	C1650.719604,140.193634 1659.678589,131.219437 1673.718140,128.927795 
	C1674.540283,128.793610 1675.365479,128.677795 1676.632080,128.472443 
M1681.976074,101.053696 
	C1686.473633,101.037376 1690.975952,100.877449 1695.467773,101.031151 
	C1710.051880,101.530228 1719.071167,111.096855 1717.852173,125.058952 
	C1717.691528,126.900047 1715.933594,129.611313 1714.343506,130.115417 
	C1710.622192,131.295120 1706.553833,131.813629 1702.625610,131.815521 
	C1694.667236,131.819351 1686.702148,130.934830 1678.751343,131.073746 
	C1659.077393,131.417496 1648.427979,147.264694 1652.948853,164.364136 
	C1656.553467,177.998154 1666.973999,183.900452 1681.968872,184.901581 
	C1693.383545,185.663696 1704.135376,183.468140 1712.783447,174.954254 
	C1713.908447,173.846542 1716.189697,173.157578 1717.695679,173.461716 
	C1718.677246,173.659958 1719.910156,176.035248 1719.851562,177.384079 
	C1719.561035,184.068787 1722.236450,182.842316 1729.759033,183.003525 
	C1734.930664,183.114365 1734.023560,179.382401 1733.979004,176.358963 
	C1733.695068,157.070831 1733.475220,137.780029 1732.955933,118.497604 
	C1732.546753,103.305733 1718.911621,89.673668 1703.586304,89.049599 
	C1695.845093,88.734367 1687.981689,88.236214 1680.354858,89.222870 
	C1673.209717,90.147186 1666.264526,92.794159 1659.313965,94.949631 
	C1656.845947,95.714996 1655.468750,97.510674 1657.130737,100.373726 
	C1658.041382,101.942383 1658.266235,104.020248 1659.428711,105.295898 
	C1660.333984,106.289299 1662.409912,107.115356 1663.620972,106.778244 
	C1669.507812,105.139572 1675.278687,103.084099 1681.976074,101.053696 
z"/>
<path fill="#FBFBFA" opacity="1.000000" stroke="none" 
	d="
M23.518372,37.803070 
	C28.006359,30.502851 34.434620,27.603580 41.340870,29.516851 
	C48.367554,31.463490 53.284683,37.726204 53.418552,44.899620 
	C53.544819,51.665684 49.340443,57.511639 42.646175,59.437702 
	C36.540524,61.194405 30.994173,59.814514 26.582268,55.244957 
	C21.854536,50.348289 20.887154,44.512218 23.518372,37.803070 
z"/>
<path fill="#CC8C3F" opacity="1.000000" stroke="none" 
	d="
M554.309570,68.156937 
	C561.901672,68.148514 569.022522,68.148514 576.527832,68.148514 
	C576.527832,107.361427 576.527832,146.055374 576.527832,185.205322 
	C568.570679,185.205322 560.527344,185.205322 552.127380,185.205322 
	C552.019165,183.708771 551.824036,182.267120 551.823792,180.825439 
	C551.818970,145.043686 551.806335,109.261841 551.931396,73.480484 
	C551.937561,71.706566 553.174438,69.936958 554.309570,68.156937 
M553.024292,80.852669 
	C553.043030,83.248718 553.061829,85.644775 553.048706,88.972427 
	C553.041199,118.698082 553.121155,148.424286 552.936218,178.148834 
	C552.906982,182.836578 554.517395,184.360977 559.020203,184.059875 
	C563.650391,183.750244 568.315125,183.958832 573.607666,183.885132 
	C574.059814,183.248215 574.512024,182.611282 574.987183,181.040527 
	C574.974060,144.705643 574.960938,108.370750 574.890320,71.391846 
	C574.249878,70.941818 573.609436,70.491783 572.037537,70.014053 
	C566.373474,70.030960 560.709473,70.047874 554.443970,70.306282 
	C553.998535,71.221077 553.553101,72.135872 553.068542,73.913086 
	C553.077454,75.927322 553.086365,77.941551 553.024292,80.852669 
z"/>
<path fill="#D48D39" opacity="1.000000" stroke="none" 
	d="
M548.081421,29.528950 
	C550.945740,20.662537 556.640869,16.130602 564.375854,16.191536 
	C571.811890,16.250118 578.019470,20.827702 580.107300,27.775494 
	C582.151550,34.578011 580.248047,40.347580 575.099976,44.918846 
	C569.889587,49.545437 563.724182,50.410065 557.406860,47.583878 
	C551.235291,44.822880 548.174316,39.702866 547.938660,32.938709 
	C547.903992,31.943346 547.992188,30.943707 548.081421,29.528950 
M577.268860,38.486984 
	C580.402771,31.701536 579.130493,26.717480 572.903198,21.384687 
	C568.850647,17.914270 561.933105,17.309742 557.032227,19.997738 
	C552.519592,22.472784 549.433838,28.604507 550.020508,33.930664 
	C550.673706,39.860397 554.762878,44.695305 560.012390,46.243408 
	C567.655762,48.497463 572.746765,45.005058 577.268860,38.486984 
z"/>
<path fill="#D48F3B" opacity="1.000000" stroke="none" 
	d="
M1631.787354,166.595764 
	C1634.278076,174.051865 1633.054688,179.737015 1628.332397,183.790665 
	C1624.202393,187.335922 1618.223389,188.109787 1613.408936,185.721909 
	C1607.804199,182.942139 1605.005493,177.157410 1605.924316,170.252090 
	C1606.671997,164.632919 1610.801758,160.082626 1616.295044,158.825180 
	C1622.628052,157.375549 1627.436035,159.700378 1631.787354,166.595764 
M1629.695068,178.796722 
	C1632.210205,173.246597 1631.084106,167.176697 1626.829834,163.352051 
	C1624.156006,160.948151 1617.080322,159.990555 1614.094849,161.628433 
	C1609.547363,164.123306 1607.162842,169.551437 1608.061646,175.362915 
	C1608.884888,180.686050 1612.315674,183.990005 1618.084717,184.838455 
	C1622.995605,185.560715 1626.219238,182.708359 1629.695068,178.796722 
z"/>
<path fill="#D38F3E" opacity="1.000000" stroke="none" 
	d="
M1782.358887,65.522430 
	C1775.503296,69.251404 1770.043579,68.916824 1765.547363,64.742714 
	C1761.462891,60.950817 1760.167847,54.782440 1762.385254,49.679989 
	C1764.594116,44.597424 1769.977295,41.422916 1775.698364,42.035164 
	C1780.953613,42.597572 1784.721069,45.426716 1786.431152,50.411377 
	C1788.371826,56.067871 1787.339478,61.198685 1782.358887,65.522430 
M1779.754395,45.432121 
	C1778.852661,45.021202 1777.989014,44.440514 1777.042725,44.227943 
	C1772.210327,43.142303 1766.639282,45.600632 1764.726440,49.570702 
	C1762.282104,54.643681 1763.438965,60.610134 1767.516724,63.962734 
	C1771.247803,67.030235 1776.832275,66.864006 1781.156372,63.556801 
	C1787.032349,59.062687 1786.722168,52.087452 1779.754395,45.432121 
z"/>
<path fill="#181818" opacity="1.000000" stroke="none" 
	d="
M1427.926270,91.765045 
	C1439.397339,86.258209 1450.759766,85.467735 1461.857422,91.191338 
	C1472.425049,96.641518 1477.555908,106.027794 1479.055908,118.026268 
	C1456.283081,118.026268 1433.742065,118.026268 1410.999268,118.026268 
	C1412.977661,106.866051 1417.387329,97.568932 1427.926270,91.765045 
z"/>
<path fill="#171717" opacity="1.000000" stroke="none" 
	d="
M1071.889404,94.036758 
	C1080.100952,101.040138 1083.280029,107.074432 1084.596436,118.052200 
	C1062.188232,118.052200 1039.816528,118.052200 1017.005432,118.052200 
	C1018.540588,106.302467 1023.468323,96.776924 1034.312988,91.456070 
	C1047.029907,85.216583 1059.634033,85.701950 1071.889404,94.036758 
z"/>
<path fill="#171717" opacity="1.000000" stroke="none" 
	d="
M1149.956299,116.412415 
	C1154.997070,88.231079 1184.308350,81.661034 1202.097534,91.855827 
	C1212.055786,97.562805 1216.527100,106.547333 1218.043701,118.219650 
	C1215.971191,118.219650 1214.199463,118.217987 1212.427734,118.219902 
	C1192.952637,118.240936 1173.477417,118.291321 1154.002686,118.222282 
	C1152.634888,118.217438 1151.270386,117.331047 1149.956299,116.412415 
z"/>
<path fill="#1D1712" opacity="1.000000" stroke="none" 
	d="
M747.046997,113.143402 
	C751.945984,90.784782 776.964905,80.952065 796.652832,91.498474 
	C806.907288,96.991600 811.291443,106.389534 812.661377,117.905426 
	C790.499207,117.905426 768.596680,117.905426 746.180908,117.905426 
	C746.468018,116.303253 746.715759,114.920563 747.046997,113.143402 
z"/>
<path fill="#341803" opacity="1.000000" stroke="none" 
	d="
M295.159271,116.997581 
	C294.948090,117.295090 294.736877,117.592606 293.824982,117.966042 
	C271.444031,117.992096 249.763824,117.942230 228.083603,117.892365 
	C228.083603,117.892357 228.030838,117.958847 228.107300,117.580086 
	C229.171967,113.484032 230.160156,109.766739 231.148346,106.049446 
	C231.148361,106.049446 231.064026,106.034393 231.333328,105.899467 
	C231.766785,105.182091 231.930923,104.599640 232.095062,104.017197 
	C232.095078,104.017197 232.020798,104.016953 232.299316,103.888084 
	C232.781250,103.194901 232.984680,102.630577 233.188110,102.066261 
	C233.188110,102.066261 233.102066,102.076042 233.395782,101.964722 
	C234.204102,100.963493 234.718704,100.073593 235.233322,99.183685 
	C235.233322,99.183685 235.168777,99.114822 235.413116,99.073151 
	C235.818161,98.708176 235.978867,98.384880 236.139587,98.061584 
	C236.139587,98.061584 236.056549,98.052620 236.325073,98.014587 
	C236.762894,97.663696 236.932175,97.350845 237.101471,97.037994 
	C237.101471,97.037994 237.027573,97.025383 237.295349,96.986748 
	C237.741440,96.644897 237.919724,96.341675 238.098022,96.038460 
	C238.098022,96.038460 238.024109,96.026993 238.298431,95.997421 
	C238.761490,95.668068 238.950226,95.368279 239.138962,95.068497 
	C239.138962,95.068497 239.054611,95.058182 239.331268,95.039978 
	C239.810501,94.728119 240.013077,94.434456 240.215668,94.140793 
	C240.215668,94.140800 240.127792,94.186348 240.469604,94.154266 
	C241.605377,93.481743 242.399353,92.841309 243.193314,92.200867 
	C243.193314,92.200867 243.109238,92.151115 243.415680,92.169418 
	C244.188126,91.827560 244.654129,91.467392 245.120117,91.107224 
	C245.120117,91.107224 245.046112,91.065483 245.356445,91.099075 
	C246.157303,90.797203 246.647842,90.461746 247.138382,90.126289 
	C247.138382,90.126289 247.052551,90.095963 247.455582,90.111420 
	C257.559296,86.235779 267.256927,86.841797 276.952667,90.146881 
	C276.952667,90.146881 276.963257,90.063263 277.100800,90.330093 
	C277.818176,90.766251 278.398041,90.935577 278.977875,91.104904 
	C278.977875,91.104904 278.976898,91.027603 279.098541,91.311447 
	C279.782410,91.805275 280.344666,92.015251 280.906891,92.225235 
	C280.906891,92.225235 280.926331,92.109344 280.967072,92.370773 
	C281.333801,92.777100 281.659821,92.921997 281.985809,93.066895 
	C281.985809,93.066902 281.991394,93.002663 282.119568,93.310440 
	C284.149811,95.435272 286.051849,97.252335 287.953888,99.069389 
	C287.953888,99.069389 287.993744,99.012695 288.013184,99.286255 
	C288.316986,99.768867 288.601318,99.977921 288.885681,100.186974 
	C288.885681,100.186974 288.896820,100.073135 288.882935,100.380936 
	C289.238403,101.143097 289.607727,101.597458 289.977020,102.051819 
	C289.977020,102.051819 290.003357,102.004265 290.028870,102.354202 
	C290.975677,104.337326 291.896973,105.970505 292.818268,107.603683 
	C292.818268,107.603683 292.709808,107.761230 292.787720,108.237808 
	C293.630157,111.475456 294.394714,114.236519 295.159271,116.997581 
M234.101303,104.815598 
	C233.348099,106.657005 232.563080,108.486160 231.847992,110.342262 
	C230.094818,114.892799 230.798920,115.989807 235.691177,115.998657 
	C252.977783,116.029945 270.265167,115.921715 287.550690,116.061440 
	C292.041595,116.097725 292.513336,114.328613 291.367218,110.541786 
	C286.366577,94.019203 267.500488,84.838882 251.256668,90.784424 
	C244.031006,93.429153 238.680573,97.964317 234.101303,104.815598 
z"/>
<path fill="#D38D3A" opacity="1.000000" stroke="none" 
	d="
M228.154556,118.291336 
	C249.763824,117.942230 271.444031,117.992096 293.594421,118.117950 
	C292.857880,118.789291 291.654053,119.896759 290.444031,119.903511 
	C270.858612,120.012672 251.272324,120.003998 231.686615,119.927895 
	C230.531326,119.923416 229.379135,119.121262 228.154556,118.291336 
z"/>
<path fill="#D38D3A" opacity="1.000000" stroke="none" 
	d="
M276.814270,89.806061 
	C267.256927,86.841797 257.559296,86.235779 247.465240,90.155899 
	C248.987579,89.095978 250.787109,87.436668 252.839508,87.018494 
	C260.983795,85.359070 269.152191,84.602142 276.814270,89.806061 
z"/>
<path fill="#D38D3A" opacity="1.000000" stroke="none" 
	d="
M230.810333,106.183807 
	C230.160156,109.766739 229.171967,113.484032 228.149734,117.578964 
	C225.337448,113.355507 228.599884,109.977562 230.810333,106.183807 
z"/>
<path fill="#D38D3A" opacity="1.000000" stroke="none" 
	d="
M287.977417,98.695503 
	C286.051849,97.252335 284.149811,95.435272 282.092560,93.328033 
	C285.547852,92.975235 287.322144,95.019806 287.977417,98.695503 
z"/>
<path fill="#D38D3A" opacity="1.000000" stroke="none" 
	d="
M295.393860,116.717850 
	C294.394714,114.236519 293.630157,111.475456 292.842651,108.316093 
	C293.755951,110.757904 294.692200,113.598015 295.393860,116.717850 
z"/>
<path fill="#D38D3A" opacity="1.000000" stroke="none" 
	d="
M292.865387,107.192673 
	C291.896973,105.970505 290.975677,104.337326 290.002167,102.359207 
	C290.937469,103.603394 291.924988,105.192528 292.865387,107.192673 
z"/>
<path fill="#D38D3A" opacity="1.000000" stroke="none" 
	d="
M234.864883,99.181061 
	C234.718704,100.073593 234.204102,100.963493 233.414703,102.003662 
	C233.592102,101.162094 234.044281,100.170265 234.864883,99.181061 
z"/>
<path fill="#D38D3A" opacity="1.000000" stroke="none" 
	d="
M242.818573,92.140671 
	C242.399353,92.841309 241.605377,93.481743 240.506256,94.187515 
	C240.948685,93.528725 241.696274,92.804604 242.818573,92.140671 
z"/>
<path fill="#D38D3A" opacity="1.000000" stroke="none" 
	d="
M232.903809,102.206467 
	C232.984680,102.630577 232.781250,103.194901 232.318420,103.919930 
	C232.245850,103.502655 232.432678,102.924660 232.903809,102.206467 
z"/>
<path fill="#D38D3A" opacity="1.000000" stroke="none" 
	d="
M246.818192,90.103394 
	C246.647842,90.461746 246.157303,90.797203 245.355087,91.141525 
	C245.528275,90.793762 246.013138,90.437134 246.818192,90.103394 
z"/>
<path fill="#D38D3A" opacity="1.000000" stroke="none" 
	d="
M278.813263,90.835724 
	C278.398041,90.935577 277.818176,90.766251 277.061554,90.345413 
	C277.472717,90.251450 278.060699,90.408997 278.813263,90.835724 
z"/>
<path fill="#D38D3A" opacity="1.000000" stroke="none" 
	d="
M244.797424,91.091354 
	C244.654129,91.467392 244.188126,91.827560 243.415451,92.218269 
	C243.564087,91.857704 244.019409,91.466591 244.797424,91.091354 
z"/>
<path fill="#D38D3A" opacity="1.000000" stroke="none" 
	d="
M280.776978,91.933731 
	C280.344666,92.015251 279.782410,91.805275 279.065826,91.332031 
	C279.489990,91.259926 280.068512,91.451080 280.776978,91.933731 
z"/>
<path fill="#D38D3A" opacity="1.000000" stroke="none" 
	d="
M231.828232,104.184387 
	C231.930923,104.599640 231.766785,105.182091 231.349030,105.939323 
	C231.250748,105.526596 231.406067,104.939095 231.828232,104.184387 
z"/>
<path fill="#D38D3A" opacity="1.000000" stroke="none" 
	d="
M289.969421,101.736099 
	C289.607727,101.597458 289.238403,101.143097 288.826447,100.389771 
	C289.176483,100.534012 289.569153,100.977203 289.969421,101.736099 
z"/>
<path fill="#D38D3A" opacity="1.000000" stroke="none" 
	d="
M288.818298,99.926544 
	C288.601318,99.977921 288.316986,99.768867 287.978699,99.289520 
	C288.200134,99.234848 288.475555,99.450478 288.818298,99.926544 
z"/>
<path fill="#D38D3A" opacity="1.000000" stroke="none" 
	d="
M235.886780,98.163734 
	C235.978867,98.384880 235.818161,98.708176 235.391357,99.115021 
	C235.294830,98.887672 235.464386,98.576782 235.886780,98.163734 
z"/>
<path fill="#D38D3A" opacity="1.000000" stroke="none" 
	d="
M281.867188,92.826469 
	C281.659821,92.921997 281.333801,92.777100 280.908569,92.375999 
	C281.122375,92.275215 281.435455,92.430626 281.867188,92.826469 
z"/>
<path fill="#D38D3A" opacity="1.000000" stroke="none" 
	d="
M239.949951,94.208374 
	C240.013077,94.434456 239.810501,94.728119 239.335388,95.082275 
	C239.269974,94.853828 239.477112,94.564888 239.949951,94.208374 
z"/>
<path fill="#D38D3A" opacity="1.000000" stroke="none" 
	d="
M238.885666,95.154526 
	C238.950226,95.368279 238.761490,95.668068 238.305328,96.034180 
	C238.236053,95.813858 238.434219,95.527206 238.885666,95.154526 
z"/>
<path fill="#D38D3A" opacity="1.000000" stroke="none" 
	d="
M237.852692,96.136581 
	C237.919724,96.341675 237.741440,96.644897 237.300995,97.023804 
	C237.228378,96.811234 237.417877,96.522972 237.852692,96.136581 
z"/>
<path fill="#D38D3A" opacity="1.000000" stroke="none" 
	d="
M236.854889,97.140594 
	C236.932175,97.350845 236.762894,97.663696 236.329559,98.056099 
	C236.246475,97.838165 236.427399,97.540680 236.854889,97.140594 
z"/>
<path fill="#F89217" opacity="1.000000" stroke="none" 
	d="
M1681.533325,101.114960 
	C1675.278687,103.084099 1669.507812,105.139572 1663.620972,106.778244 
	C1662.409912,107.115356 1660.333984,106.289299 1659.428711,105.295898 
	C1658.266235,104.020248 1658.041382,101.942383 1657.130737,100.373726 
	C1655.468750,97.510674 1656.845947,95.714996 1659.313965,94.949631 
	C1666.264526,92.794159 1673.209717,90.147186 1680.354858,89.222870 
	C1687.981689,88.236214 1695.845093,88.734367 1703.586304,89.049599 
	C1718.911621,89.673668 1732.546753,103.305733 1732.955933,118.497604 
	C1733.475220,137.780029 1733.695068,157.070831 1733.979004,176.358963 
	C1734.023560,179.382401 1734.930664,183.114365 1729.759033,183.003525 
	C1722.236450,182.842316 1719.561035,184.068787 1719.851562,177.384079 
	C1719.910156,176.035248 1718.677246,173.659958 1717.695679,173.461716 
	C1716.189697,173.157578 1713.908447,173.846542 1712.783447,174.954254 
	C1704.135376,183.468140 1693.383545,185.663696 1681.968872,184.901581 
	C1666.973999,183.900452 1656.553467,177.998154 1652.948853,164.364136 
	C1648.427979,147.264694 1659.077393,131.417496 1678.751343,131.073746 
	C1686.702148,130.934830 1694.667236,131.819351 1702.625610,131.815521 
	C1706.553833,131.813629 1710.622192,131.295120 1714.343506,130.115417 
	C1715.933594,129.611313 1717.691528,126.900047 1717.852173,125.058952 
	C1719.071167,111.096855 1710.051880,101.530228 1695.467773,101.031151 
	C1690.975952,100.877449 1686.473633,101.037376 1681.533325,101.114960 
M1671.312866,147.178238 
	C1671.312866,147.178238 1671.327026,147.316635 1670.937988,147.224274 
	C1670.820679,147.282547 1670.595947,147.368378 1670.602783,147.394806 
	C1670.662720,147.628464 1670.763794,147.851578 1670.759766,148.479233 
	C1670.636353,148.742706 1670.437988,148.924500 1669.602661,149.383804 
	C1669.479736,149.801147 1669.356812,150.218475 1669.332764,150.843750 
	C1669.332764,150.843750 1669.172241,151.008820 1668.378662,151.158508 
	C1666.610596,154.896072 1665.208130,158.601089 1669.202271,161.942596 
	C1669.202271,161.942596 1669.275269,161.779236 1669.134033,162.434860 
	C1669.510986,162.915909 1669.887939,163.396957 1670.167725,163.882721 
	C1670.167725,163.882721 1670.214233,163.797119 1670.122803,164.466141 
	C1670.570435,164.838852 1671.018066,165.211563 1671.201294,165.553192 
	C1671.201294,165.553192 1671.458374,165.621918 1671.407837,166.195114 
	C1671.727661,166.349121 1672.047485,166.503143 1672.206055,167.006958 
	C1672.206055,167.006958 1672.338989,166.645905 1672.372559,167.221741 
	C1672.700928,167.366409 1673.029175,167.511078 1673.200684,167.754242 
	C1673.200684,167.754242 1673.304443,167.600769 1673.403198,168.252563 
	C1673.979736,168.464569 1674.556396,168.676559 1675.025879,168.946350 
	C1675.025879,168.946350 1675.098022,168.848434 1675.117188,169.606369 
	C1675.443115,170.162262 1675.630371,170.959595 1676.115601,171.238190 
	C1684.856567,176.257874 1701.741699,173.823776 1709.303101,167.355118 
	C1715.800049,161.796982 1717.795166,155.081482 1717.690430,146.890289 
	C1717.479858,145.912796 1717.269287,144.935303 1716.986206,143.372040 
	C1716.649048,142.923340 1716.311768,142.474655 1716.000000,142.000000 
	C1716.000000,142.000000 1715.970093,142.021317 1715.819580,141.259048 
	C1713.224243,140.823502 1710.628906,140.387939 1707.887695,139.321121 
	C1706.913330,139.530411 1705.938843,139.739685 1704.320312,139.958221 
	C1703.890991,139.956482 1703.461548,139.954742 1702.859497,139.294434 
	C1701.203491,137.400757 1699.883057,137.481964 1698.036133,139.969711 
	C1693.266968,139.982635 1688.464600,139.668045 1683.743042,140.148560 
	C1681.429565,140.384003 1679.266357,142.096359 1677.047363,143.061310 
	C1677.047363,143.061310 1677.117676,143.099167 1676.475342,143.041153 
	C1675.999634,143.411301 1675.523804,143.781433 1675.052612,144.069962 
	C1675.052612,144.069962 1675.126953,144.103897 1674.471436,144.066788 
	C1674.058960,144.494873 1673.646484,144.922943 1673.195557,145.244751 
	C1673.195557,145.244751 1673.306641,145.265594 1672.739136,145.333771 
	C1672.564575,145.651505 1672.390015,145.969238 1672.187256,146.190628 
	C1672.187256,146.190628 1672.284790,146.214218 1671.723511,146.323883 
	C1671.569214,146.651642 1671.414917,146.979401 1671.312866,147.178238 
z"/>
<path fill="#F99214" opacity="1.000000" stroke="none" 
	d="
M555.045410,70.064789 
	C560.709473,70.047874 566.373474,70.030960 572.564087,70.333496 
	C573.709717,71.113922 574.328796,71.574898 574.947754,72.035873 
	C574.960938,108.370750 574.974060,144.705643 574.669739,181.566162 
	C573.889771,182.708084 573.427307,183.324371 572.964783,183.940659 
	C568.315125,183.958832 563.650391,183.750244 559.020203,184.059875 
	C554.517395,184.360977 552.906982,182.836578 552.936218,178.148834 
	C553.121155,148.424286 553.041199,118.698082 553.422852,88.389786 
	C555.434204,85.022781 556.356873,82.302277 553.095215,79.955788 
	C553.086365,77.941551 553.077454,75.927322 553.407410,73.396507 
	C554.179321,71.941544 554.612366,71.003166 555.045410,70.064789 
z"/>
<path fill="#EF9525" opacity="1.000000" stroke="none" 
	d="
M553.059753,80.404228 
	C556.356873,82.302277 555.434204,85.022781 553.438782,87.923981 
	C553.061829,85.644775 553.043030,83.248718 553.059753,80.404228 
z"/>
<path fill="#EF9525" opacity="1.000000" stroke="none" 
	d="
M554.744690,70.185532 
	C554.612366,71.003166 554.179321,71.941544 553.427002,72.965294 
	C553.553101,72.135872 553.998535,71.221077 554.744690,70.185532 
z"/>
<path fill="#EF9525" opacity="1.000000" stroke="none" 
	d="
M573.286255,183.912903 
	C573.427307,183.324371 573.889771,182.708084 574.658203,182.033081 
	C574.512024,182.611282 574.059814,183.248215 573.286255,183.912903 
z"/>
<path fill="#EF9525" opacity="1.000000" stroke="none" 
	d="
M574.919067,71.713860 
	C574.328796,71.574898 573.709717,71.113922 573.029846,70.347351 
	C573.609436,70.491783 574.249878,70.941818 574.919067,71.713860 
z"/>
<path fill="#F59016" opacity="1.000000" stroke="none" 
	d="
M577.097046,38.825401 
	C572.746765,45.005058 567.655762,48.497463 560.012390,46.243408 
	C554.762878,44.695305 550.673706,39.860397 550.020508,33.930664 
	C549.433838,28.604507 552.519592,22.472784 557.032227,19.997738 
	C561.933105,17.309742 568.850647,17.914270 572.903198,21.384687 
	C579.130493,26.717480 580.402771,31.701536 577.097046,38.825401 
z"/>
<path fill="#F59219" opacity="1.000000" stroke="none" 
	d="
M1629.429932,179.082260 
	C1626.219238,182.708359 1622.995605,185.560715 1618.084717,184.838455 
	C1612.315674,183.990005 1608.884888,180.686050 1608.061646,175.362915 
	C1607.162842,169.551437 1609.547363,164.123306 1614.094849,161.628433 
	C1617.080322,159.990555 1624.156006,160.948151 1626.829834,163.352051 
	C1631.084106,167.176697 1632.210205,173.246597 1629.429932,179.082260 
z"/>
<path fill="#F4921A" opacity="1.000000" stroke="none" 
	d="
M1780.062744,45.668217 
	C1786.722168,52.087452 1787.032349,59.062687 1781.156372,63.556801 
	C1776.832275,66.864006 1771.247803,67.030235 1767.516724,63.962734 
	C1763.438965,60.610134 1762.282104,54.643681 1764.726440,49.570702 
	C1766.639282,45.600632 1772.210327,43.142303 1777.042725,44.227943 
	C1777.989014,44.440514 1778.852661,45.021202 1780.062744,45.668217 
z"/>
<path fill="#191816" opacity="1.000000" stroke="none" 
	d="
M234.295654,104.497147 
	C238.680573,97.964317 244.031006,93.429153 251.256668,90.784424 
	C267.500488,84.838882 286.366577,94.019203 291.367218,110.541786 
	C292.513336,114.328613 292.041595,116.097725 287.550690,116.061440 
	C270.265167,115.921715 252.977783,116.029945 235.691177,115.998657 
	C230.798920,115.989807 230.094818,114.892799 231.847992,110.342262 
	C232.563080,108.486160 233.348099,106.657005 234.295654,104.497147 
z"/>
<path fill="#1E1812" opacity="1.000000" stroke="none" 
	d="
M1670.164795,149.024628 
	C1670.437988,148.924500 1670.636353,148.742706 1670.984619,148.124908 
	C1671.209473,147.770584 1671.327026,147.316635 1671.327026,147.316635 
	C1671.327026,147.316635 1671.312866,147.178238 1671.542236,147.155518 
	C1671.942627,146.826614 1672.113770,146.520416 1672.284790,146.214203 
	C1672.284790,146.214218 1672.187256,146.190628 1672.460571,146.163574 
	C1672.924805,145.846222 1673.115723,145.555923 1673.306641,145.265610 
	C1673.306641,145.265594 1673.195557,145.244751 1673.507568,145.244110 
	C1674.255493,144.863586 1674.691162,144.483704 1675.126953,144.103851 
	C1675.126953,144.103897 1675.052612,144.069962 1675.356934,144.090179 
	C1676.146729,143.773315 1676.632202,143.436249 1677.117676,143.099182 
	C1677.117676,143.099167 1677.047363,143.061310 1677.467773,143.093018 
	C1690.582153,142.756912 1703.276123,142.389114 1715.970093,142.021317 
	C1715.970093,142.021317 1716.000000,142.000000 1715.959717,142.464935 
	C1716.527222,153.028259 1715.164185,162.330460 1705.225098,167.847733 
	C1695.389648,173.307495 1685.300293,173.324432 1675.098022,168.848434 
	C1675.098022,168.848434 1675.025879,168.946350 1674.942871,168.655731 
	C1674.341431,168.110321 1673.822998,167.855545 1673.304443,167.600769 
	C1673.304443,167.600769 1673.200684,167.754242 1673.203125,167.456848 
	C1672.916748,166.988266 1672.627930,166.817078 1672.338989,166.645905 
	C1672.338989,166.645905 1672.206055,167.006958 1672.225952,166.590714 
	C1672.079102,165.853806 1671.816650,165.669632 1671.458374,165.621918 
	C1671.458374,165.621918 1671.201294,165.553192 1671.275391,165.290009 
	C1670.970947,164.616913 1670.592651,164.207016 1670.214233,163.797119 
	C1670.214233,163.797119 1670.167725,163.882721 1670.194336,163.575775 
	C1669.905762,162.772308 1669.590454,162.275772 1669.275269,161.779236 
	C1669.275269,161.779236 1669.202271,161.942596 1669.237915,161.433044 
	C1669.239746,157.618607 1669.206055,154.313721 1669.172241,151.008820 
	C1669.172241,151.008820 1669.332764,150.843750 1669.543579,150.542816 
	C1669.891235,149.836151 1670.028076,149.430389 1670.164795,149.024628 
z"/>
<path fill="#D08C3C" opacity="1.000000" stroke="none" 
	d="
M1675.107666,169.227402 
	C1685.300293,173.324432 1695.389648,173.307495 1705.225098,167.847733 
	C1715.164185,162.330460 1716.527222,153.028259 1715.947021,142.477905 
	C1716.311768,142.474655 1716.649048,142.923340 1717.000610,144.050964 
	C1717.031616,145.501877 1717.048340,146.273865 1717.064941,147.045837 
	C1717.795166,155.081482 1715.800049,161.796982 1709.303101,167.355118 
	C1701.741699,173.823776 1684.856567,176.257874 1676.115601,171.238190 
	C1675.630371,170.959595 1675.443115,170.162262 1675.107666,169.227402 
z"/>
<path fill="#D08C3C" opacity="1.000000" stroke="none" 
	d="
M1715.894775,141.640182 
	C1703.276123,142.389114 1690.582153,142.756912 1677.461670,143.132492 
	C1679.266357,142.096359 1681.429565,140.384003 1683.743042,140.148560 
	C1688.464600,139.668045 1693.266968,139.982635 1698.908936,139.984253 
	C1700.865234,139.983521 1701.948730,139.968262 1703.032227,139.953003 
	C1703.461548,139.954742 1703.890991,139.956482 1705.026001,139.976288 
	C1706.499023,139.980362 1707.266235,139.966370 1708.033569,139.952377 
	C1710.628906,140.387939 1713.224243,140.823502 1715.894775,141.640182 
z"/>
<path fill="#D08C3C" opacity="1.000000" stroke="none" 
	d="
M1668.775391,151.083664 
	C1669.206055,154.313721 1669.239746,157.618607 1669.300415,161.369049 
	C1665.208130,158.601089 1666.610596,154.896072 1668.775391,151.083664 
z"/>
<path fill="#E7922A" opacity="1.000000" stroke="none" 
	d="
M1702.945801,139.623718 
	C1701.948730,139.968262 1700.865234,139.983521 1699.375366,139.977081 
	C1699.883057,137.481964 1701.203491,137.400757 1702.945801,139.623718 
z"/>
<path fill="#E7922A" opacity="1.000000" stroke="none" 
	d="
M1707.960693,139.636749 
	C1707.266235,139.966370 1706.499023,139.980362 1705.348145,139.971649 
	C1705.938843,139.739685 1706.913330,139.530411 1707.960693,139.636749 
z"/>
<path fill="#E7922A" opacity="1.000000" stroke="none" 
	d="
M1717.377686,146.968063 
	C1717.048340,146.273865 1717.031616,145.501877 1717.036865,144.343857 
	C1717.269287,144.935303 1717.479858,145.912796 1717.377686,146.968063 
z"/>
<path fill="#D08C3C" opacity="1.000000" stroke="none" 
	d="
M1673.353760,167.926666 
	C1673.822998,167.855545 1674.341431,168.110321 1674.996460,168.626831 
	C1674.556396,168.676559 1673.979736,168.464569 1673.353760,167.926666 
z"/>
<path fill="#D08C3C" opacity="1.000000" stroke="none" 
	d="
M1670.168457,164.131622 
	C1670.592651,164.207016 1670.970947,164.616913 1671.407471,165.305542 
	C1671.018066,165.211563 1670.570435,164.838852 1670.168457,164.131622 
z"/>
<path fill="#D08C3C" opacity="1.000000" stroke="none" 
	d="
M1669.204590,162.107056 
	C1669.590454,162.275772 1669.905762,162.772308 1670.242920,163.573425 
	C1669.887939,163.396957 1669.510986,162.915909 1669.204590,162.107056 
z"/>
<path fill="#D08C3C" opacity="1.000000" stroke="none" 
	d="
M1676.796509,143.070160 
	C1676.632202,143.436249 1676.146729,143.773315 1675.354736,144.130981 
	C1675.523804,143.781433 1675.999634,143.411301 1676.796509,143.070160 
z"/>
<path fill="#D08C3C" opacity="1.000000" stroke="none" 
	d="
M1674.799072,144.085297 
	C1674.691162,144.483704 1674.255493,144.863586 1673.526855,145.297241 
	C1673.646484,144.922943 1674.058960,144.494873 1674.799072,144.085297 
z"/>
<path fill="#D08C3C" opacity="1.000000" stroke="none" 
	d="
M1673.022949,145.299698 
	C1673.115723,145.555923 1672.924805,145.846222 1672.474731,146.211761 
	C1672.390015,145.969238 1672.564575,145.651505 1673.022949,145.299698 
z"/>
<path fill="#D08C3C" opacity="1.000000" stroke="none" 
	d="
M1672.355713,166.933823 
	C1672.627930,166.817078 1672.916748,166.988266 1673.281616,167.407593 
	C1673.029175,167.511078 1672.700928,167.366409 1672.355713,166.933823 
z"/>
<path fill="#D08C3C" opacity="1.000000" stroke="none" 
	d="
M1671.433105,165.908508 
	C1671.816650,165.669632 1672.079102,165.853806 1672.306519,166.415817 
	C1672.047485,166.503143 1671.727661,166.349121 1671.433105,165.908508 
z"/>
<path fill="#D08C3C" opacity="1.000000" stroke="none" 
	d="
M1671.132568,147.270447 
	C1671.327026,147.316635 1671.209473,147.770584 1671.031006,147.924210 
	C1670.763794,147.851578 1670.662720,147.628464 1670.602783,147.394806 
	C1670.595947,147.368378 1670.820679,147.282547 1671.132568,147.270447 
z"/>
<path fill="#D08C3C" opacity="1.000000" stroke="none" 
	d="
M1672.004150,146.269043 
	C1672.113770,146.520416 1671.942627,146.826614 1671.516113,147.219986 
	C1671.414917,146.979401 1671.569214,146.651642 1672.004150,146.269043 
z"/>
<path fill="#D08C3C" opacity="1.000000" stroke="none" 
	d="
M1669.883789,149.204224 
	C1670.028076,149.430389 1669.891235,149.836151 1669.494141,150.438858 
	C1669.356812,150.218475 1669.479736,149.801147 1669.883789,149.204224 
z"/>
</svg>